<?xml version="1.0" encoding="UTF-8"?>
<svg id="Layer_1" data-name="Layer 1" xmlns="http://www.w3.org/2000/svg" version="1.1" viewBox="0 0 500 398.9">
  <defs>
    <style>
      .cls-1 {
        stroke: #fff;
        stroke-width: 2px;
      }

      .cls-1, .cls-2 {
        fill: none;
        stroke-miterlimit: 10;
      }

      .cls-3 {
        fill: #000;
      }

      .cls-3, .cls-4 {
        stroke-width: 0px;
      }

      .cls-2 {
        stroke: #f2f2f2;
        stroke-width: 3px;
      }

      .cls-4 {
        fill: #fff;
        fill-rule: evenodd;
      }
    </style>
  </defs>
  <rect class="cls-3" width="500" height="398.9"/>
  <g>
    <path class="cls-4" d="M383.5,194.4l37.7-37.7-2.5-2.5-37.7,37.7,20.4-49.2-3.3-1.4-20.4,49.2v-53.3h-3.6v53.3l-20.4-49.2-3.3,1.4,20.4,49.2-37.7-37.7-2.5,2.5,37.7,37.7-49.2-20.4-1.4,3.3,49.2,20.4h-53.3v3.6h53.3l-49.2,20.4,1.4,3.3,49.2-20.4-37.7,37.7,2.5,2.5,37.7-37.7-20.4,49.2,3.3,1.4,20.4-49.2v53.3h3.6v-53.3l20.4,49.2,3.3-1.4-20.4-49.2,37.7,37.7,2.5-2.5-37.7-37.7,49.2,20.4,1.4-3.3-49.2-20.4h53.3v-3.6h-53.3l49.2-20.4-1.4-3.3-49.2,20.4Z"/>
    <line class="cls-2" x1="250.9" y1="70.6" x2="250.9" y2="328.3"/>
    <circle class="cls-1" cx="125.9" cy="199.5" r="64"/>
  </g>
</svg>